<!-- cart -->
<svg xmlns="http://www.w3.org/2000/svg" width="31" height="39">
  <g transform="translate(3.1 7.426)">
    <path d="M 24.49 8.112 L 24.397 8.112 C 24.242 3.619 20.553 0 16.027 0 L 8.773 0 C 6.541 0 4.433 0.874 2.852 2.465 C 1.333 3.994 0.496 5.99 0.403 8.112 L 0.31 8.112 C 0.124 8.112 0 8.237 0 8.424 L 0 11.263 C 0 11.45 0.124 11.575 0.31 11.575 L 0.682 11.575 L 0.155 18.782 C 0.093 19.438 0.341 20.093 0.775 20.561 C 1.209 21.029 1.829 21.31 2.48 21.31 L 22.32 21.31 C 22.971 21.31 23.591 21.029 24.025 20.561 C 24.459 20.093 24.676 19.438 24.645 18.782 L 24.118 11.575 L 24.49 11.575 C 24.676 11.575 24.8 11.45 24.8 11.263 L 24.8 8.424 C 24.8 8.268 24.676 8.112 24.49 8.112 Z M 3.286 2.933 C 4.743 1.466 6.696 0.655 8.773 0.655 L 16.027 0.655 C 20.212 0.655 23.622 3.994 23.777 8.143 L 23.157 8.143 L 23.064 7.176 C 22.444 3.744 19.499 1.248 16.027 1.248 L 8.773 1.248 C 5.301 1.248 2.325 3.744 1.736 7.176 L 1.736 7.207 L 1.643 8.143 L 1.023 8.143 C 1.116 6.178 1.891 4.337 3.286 2.933 Z M 13.206 9.329 L 11.594 9.329 C 10.54 9.329 9.672 10.202 9.672 11.263 C 7.471 11.107 5.239 10.764 3.038 10.234 L 3.038 8.424 C 3.038 8.237 2.914 8.112 2.728 8.112 L 2.263 8.112 L 2.325 7.27 C 2.883 4.118 5.58 1.841 8.773 1.841 L 16.027 1.841 C 16.213 1.841 16.43 1.841 16.616 1.872 C 19.53 2.122 21.948 4.306 22.475 7.27 L 22.537 8.143 L 22.072 8.143 C 21.886 8.143 21.762 8.268 21.762 8.455 L 21.762 10.265 C 19.561 10.795 17.329 11.138 15.128 11.294 C 15.128 10.202 14.26 9.329 13.206 9.329 Z M 14.508 11.263 L 14.508 14.196 L 10.292 14.196 L 10.292 11.263 C 10.292 10.546 10.881 9.953 11.594 9.953 L 13.206 9.953 C 13.919 9.953 14.508 10.546 14.508 11.263 Z M 0.62 10.951 L 0.62 8.736 L 2.418 8.736 L 2.418 10.951 Z M 23.56 20.155 C 23.219 20.498 22.785 20.717 22.32 20.717 L 2.48 20.717 C 1.984 20.717 1.55 20.53 1.24 20.155 C 0.93 19.781 0.744 19.344 0.806 18.845 L 1.333 11.575 L 2.759 11.575 C 2.945 11.575 3.069 11.45 3.069 11.263 L 3.069 10.858 C 5.27 11.388 7.502 11.731 9.703 11.856 L 9.703 14.477 C 9.703 14.664 9.827 14.789 10.013 14.789 L 14.849 14.789 C 15.035 14.789 15.159 14.664 15.159 14.477 L 15.159 11.856 C 17.36 11.7 19.592 11.357 21.793 10.858 L 21.793 11.263 C 21.793 11.45 21.917 11.575 22.103 11.575 L 23.529 11.575 L 24.056 18.845 C 24.056 19.344 23.901 19.781 23.56 20.155 Z M 24.18 10.951 L 22.382 10.951 L 22.382 8.736 L 24.18 8.736 Z" fill="rgb(71, 85, 110)" stroke-width="0.46" stroke="rgb(71, 85, 110)" stroke-miterlimit="10"></path>
    <g transform="translate(2.728 10.421)">
      <path d="M 8.184 0.998 C 8.091 1.217 8.029 1.435 8.029 1.654 C 8.029 2.558 8.773 3.307 9.672 3.307 C 10.122 3.307 10.532 3.12 10.831 2.82 C 11.129 2.519 11.315 2.106 11.315 1.654 C 11.315 1.404 11.253 1.186 11.16 0.967 C 10.912 0.374 10.323 0 9.672 0 C 9.021 0.031 8.463 0.406 8.184 0.998 Z M 10.602 1.248 C 10.664 1.373 10.695 1.529 10.695 1.654 C 10.695 2.215 10.23 2.683 9.672 2.683 C 9.114 2.683 8.649 2.215 8.649 1.654 C 8.649 1.498 8.68 1.373 8.742 1.248 C 8.897 0.874 9.269 0.655 9.672 0.655 C 10.075 0.655 10.416 0.874 10.602 1.248 Z M 0 6.24 L 4.03 6.24 L 4.03 6.864 L 0 6.864 Z" fill="rgb(71, 85, 110)" stroke-width="0.46" stroke="rgb(71, 85, 110)" stroke-miterlimit="10"></path>
    </g></g>
</svg>