
<svg xmlns="http://www.w3.org/2000/svg" width="29" height="35">
  <g transform="translate(2.945 7.175)">
    <path d="M 21.161 1.969 C 19.847 0.7 18.08 0 16.222 0 C 14.5 0 12.869 0.612 11.6 1.706 C 10.331 0.612 8.7 0 6.978 0 C 5.12 0 3.353 0.7 2.039 1.969 C -0.68 4.594 -0.68 8.925 2.039 11.55 L 11.328 20.519 C 11.419 20.606 11.555 20.65 11.645 20.65 C 11.736 20.65 11.872 20.606 11.963 20.519 L 21.252 11.55 C 23.88 8.925 23.88 4.637 21.161 1.969 Z M 20.527 10.937 L 11.555 19.6 L 2.583 10.937 C 0.227 8.662 0.227 4.9 2.583 2.581 C 3.716 1.488 5.256 0.875 6.888 0.875 C 8.519 0.875 10.059 1.488 11.192 2.581 C 11.373 2.756 11.645 2.756 11.827 2.581 C 12.959 1.488 14.5 0.875 16.131 0.875 C 17.763 0.875 19.303 1.488 20.436 2.581 C 22.883 4.9 22.883 8.662 20.527 10.937 Z" fill="rgb(71, 85, 110)" stroke-width="1.45" stroke="rgb(71, 85, 110)" stroke-miterlimit="10"></path>
  </g>
</svg>