<!-- home -->
<svg xmlns="http://www.w3.org/2000/svg" width="39" height="44">
  <g transform="translate(2.34 6.735)">
    <path d="M 34.06 14.15 L 18.785 0.774 C 17.745 -0.106 17.095 -0.399 15.73 0.774 C 14.365 1.947 0.26 14.091 0.26 14.091 C 0.13 14.209 0 14.385 0 14.561 C 0 14.913 0.325 15.265 0.78 15.265 C 0.975 15.265 1.17 15.206 1.3 15.089 L 17.225 1.361 L 32.89 15.089 C 33.02 15.265 33.28 15.382 33.475 15.382 C 33.93 15.382 34.255 15.089 34.255 14.678 C 34.32 14.443 34.19 14.326 34.06 14.15 Z M 29.25 12.625 C 29.25 12.273 28.925 11.921 28.47 11.921 C 28.015 11.921 27.69 12.214 27.69 12.625 L 27.69 24.651 C 27.69 25.473 27.69 26.235 26.195 26.235 L 21.255 26.235 L 21.255 18.843 C 21.255 17.142 20.345 16.673 18.72 16.673 L 15.6 16.673 C 14.04 16.673 13 17.201 13 18.843 L 13 26.235 L 8.45 26.235 C 7.02 26.235 6.695 25.883 6.695 24.651 L 6.695 12.566 C 6.695 12.214 6.37 11.862 5.915 11.862 C 5.525 11.862 5.135 12.155 5.135 12.566 L 5.135 24.945 C 5.135 26.881 5.72 27.585 8.255 27.585 L 14.43 27.585 L 14.43 19.137 C 14.43 18.257 14.755 18.022 15.6 18.022 L 18.59 18.022 C 19.24 18.022 19.63 18.198 19.63 19.078 L 19.63 27.585 L 26.39 27.585 C 28.6 27.585 29.12 26.646 29.12 24.886 C 29.25 23.537 29.25 12.625 29.25 12.625 Z" fill="rgb(71, 85, 110)"></path>
  </g>
</svg>