<!-- Logo_Mark -->
<svg xmlns="http://www.w3.org/2000/svg" width="26" height="30">
  <g>
    <g>
      <g>
        <g>
          <path d="M 17.069 2.065 C 17.343 1.853 17.689 1.988 17.904 2.241 C 18.069 2.465 18.193 2.716 18.27 2.982 C 18.704 4.201 18.995 5.463 19.357 6.699 L 20.411 10.31 C 20.818 11.698 21.225 13.086 21.632 14.472 L 22.894 18.782 L 24.082 22.836 L 25.076 26.231 L 25.76 28.565 L 25.974 29.295 C 25.976 29.302 25.972 29.31 25.965 29.313 C 25.958 29.316 25.95 29.314 25.945 29.308 C 25.711 28.882 24.96 27.523 24.96 27.523 C 24.858 27.417 24.329 26.411 24.107 25.724 C 23.775 24.665 17.173 4.647 16.874 3.268 C 16.782 2.847 16.672 2.371 17.069 2.065 Z M 17.702 4.184 C 17.863 4.715 18.096 5.118 18.225 5.084 C 18.353 5.05 18.326 4.591 18.167 4.06 C 18.008 3.529 17.774 3.126 17.645 3.16 C 17.516 3.194 17.543 3.653 17.702 4.184 Z" fill="rgb(71,85,110)"></path>
          <path d="M 20.623 21.259 C 20.608 21.211 20.592 21.165 20.576 21.118 C 20.561 21.077 20.542 21.038 20.518 21.001 L 20.455 20.893 C 20.436 20.857 20.413 20.824 20.387 20.793 L 20.286 20.677 C 20.248 20.628 20.204 20.584 20.157 20.545 C 20.11 20.498 20.059 20.454 20.006 20.414 L 19.844 20.297 L 19.977 20.381 C 20.018 20.404 20.057 20.431 20.094 20.461 L 20.196 20.547 C 20.23 20.573 20.261 20.603 20.289 20.636 C 20.317 20.67 20.349 20.711 20.383 20.753 C 20.401 20.775 20.418 20.798 20.433 20.823 C 20.45 20.853 20.463 20.88 20.476 20.903 L 20.562 21.076 Z M 20.074 20.368 L 19.95 20.282 C 19.913 20.255 19.874 20.232 19.833 20.213 C 19.758 20.174 19.679 20.143 19.598 20.119 C 19.555 20.106 19.505 20.088 19.452 20.068 C 19.399 20.049 19.335 20.033 19.275 20.014 C 19.215 19.994 19.147 19.979 19.083 19.961 C 19.019 19.944 18.952 19.928 18.889 19.916 C 18.944 19.916 18.996 19.923 19.046 19.931 L 19.188 19.949 C 19.233 19.955 19.277 19.962 19.321 19.973 L 19.448 20 C 19.497 20.015 19.545 20.032 19.593 20.052 C 19.648 20.074 19.701 20.102 19.752 20.134 C 19.808 20.166 19.863 20.202 19.916 20.24 Z M 19.149 19.844 C 19.095 19.835 19.046 19.823 18.998 19.82 C 18.95 19.816 18.904 19.811 18.859 19.808 C 18.816 19.806 18.773 19.806 18.731 19.808 C 18.688 19.808 18.647 19.808 18.606 19.818 C 18.515 19.827 18.394 19.826 18.266 19.83 L 18.168 19.83 C 18.143 19.83 18.103 19.837 18.07 19.84 L 17.866 19.856 C 17.922 19.843 17.975 19.83 18.024 19.816 L 18.165 19.777 C 18.252 19.756 18.341 19.74 18.43 19.729 C 18.54 19.718 18.652 19.722 18.762 19.742 C 18.827 19.752 18.891 19.765 18.954 19.782 C 19.02 19.799 19.085 19.82 19.149 19.844 Z M 18.091 19.659 C 17.91 19.693 17.733 19.745 17.563 19.814 C 17.32 19.883 17.069 19.922 16.817 19.931 C 17.039 19.87 17.206 19.799 17.374 19.738 C 17.608 19.677 17.85 19.65 18.091 19.659 Z M 17.039 19.679 C 16.857 19.724 16.681 19.788 16.512 19.87 C 16.271 19.95 16.02 19.994 15.766 20.001 C 15.956 19.936 16.143 19.861 16.324 19.774 C 16.555 19.7 16.797 19.668 17.039 19.679 Z M 15.986 19.701 C 15.803 19.755 15.627 19.83 15.462 19.925 C 15.224 20.016 14.972 20.064 14.717 20.068 C 14.908 19.996 15.093 19.91 15.272 19.812 C 15.448 19.728 15.721 19.703 15.986 19.701 Z M 14.934 19.728 C 14.75 19.791 14.574 19.876 14.411 19.982 C 14.236 20.082 13.932 20.122 13.668 20.139 C 13.859 20.058 14.044 19.963 14.22 19.853 C 14.395 19.75 14.668 19.728 14.934 19.728 Z M 13.882 19.749 C 13.697 19.821 13.522 19.916 13.361 20.032 C 13.185 20.143 12.883 20.185 12.618 20.2 C 12.811 20.113 12.996 20.008 13.169 19.886 C 13.342 19.777 13.615 19.75 13.882 19.749 Z M 12.829 19.774 C 12.643 19.855 12.469 19.959 12.31 20.085 C 12.136 20.202 11.834 20.249 11.569 20.265 C 11.762 20.17 11.946 20.056 12.117 19.925 C 12.29 19.805 12.562 19.775 12.829 19.774 Z M 11.776 19.801 C 11.59 19.89 11.416 20.003 11.26 20.137 C 11.086 20.269 10.784 20.312 10.519 20.329 C 10.714 20.226 10.896 20.103 11.064 19.961 C 11.243 19.834 11.51 19.802 11.776 19.801 Z M 10.723 19.829 C 10.536 19.927 10.363 20.05 10.209 20.195 C 10.037 20.335 9.741 20.38 9.47 20.395 C 9.665 20.286 9.847 20.156 10.012 20.007 C 10.189 19.864 10.456 19.83 10.723 19.829 Z M 9.67 19.858 C 9.482 19.962 9.31 20.091 9.159 20.244 C 8.986 20.394 8.69 20.451 8.418 20.465 C 8.616 20.349 8.799 20.209 8.962 20.047 C 9.053 19.971 9.162 19.919 9.279 19.896 C 9.408 19.869 9.539 19.856 9.67 19.858 Z M 8.619 19.9 C 8.431 20.013 8.258 20.151 8.107 20.309 C 7.934 20.465 7.628 20.51 7.361 20.521 C 7.562 20.403 7.747 20.26 7.912 20.095 C 8.081 19.942 8.354 19.903 8.619 19.9 Z M 7.574 19.931 C 7.382 20.046 7.207 20.186 7.054 20.349 C 6.879 20.511 6.575 20.553 6.314 20.568 C 6.513 20.441 6.696 20.292 6.862 20.123 C 7.036 19.961 7.309 19.928 7.574 19.931 Z M 6.521 19.948 C 6.328 20.069 6.154 20.219 6.007 20.393 C 5.916 20.481 5.803 20.544 5.68 20.576 C 5.554 20.617 5.423 20.644 5.291 20.657 C 5.389 20.588 5.48 20.51 5.563 20.423 L 5.805 20.169 C 5.894 20.082 6.005 20.022 6.126 19.995 C 6.255 19.963 6.388 19.947 6.521 19.948 Z M 5.451 20.001 C 5.356 20.071 5.267 20.149 5.185 20.234 C 5.106 20.317 5.036 20.407 4.974 20.503 C 4.935 20.551 4.89 20.593 4.84 20.63 C 4.789 20.668 4.734 20.7 4.675 20.727 C 4.616 20.754 4.554 20.778 4.491 20.798 C 4.429 20.82 4.366 20.84 4.305 20.856 C 4.389 20.768 4.468 20.675 4.539 20.576 L 4.748 20.286 C 4.826 20.186 4.932 20.113 5.052 20.074 C 5.115 20.05 5.18 20.033 5.247 20.022 C 5.314 20.011 5.382 20.004 5.451 20.001 Z M 4.371 20.156 C 4.287 20.244 4.209 20.337 4.137 20.435 C 4.104 20.482 4.073 20.53 4.045 20.579 C 4.016 20.63 3.989 20.683 3.967 20.737 C 3.904 20.848 3.813 20.94 3.703 21.004 C 3.593 21.076 3.475 21.136 3.352 21.182 C 3.427 21.084 3.493 20.979 3.547 20.868 C 3.603 20.751 3.656 20.651 3.713 20.545 C 3.743 20.489 3.783 20.44 3.83 20.398 C 3.875 20.351 3.928 20.311 3.985 20.281 C 4.108 20.223 4.237 20.181 4.371 20.156 Z M 3.321 20.462 C 3.25 20.56 3.185 20.663 3.128 20.77 C 3.074 20.875 3.031 20.986 2.998 21.099 C 2.949 21.218 2.868 21.321 2.764 21.397 C 2.66 21.481 2.547 21.553 2.427 21.612 C 2.493 21.505 2.548 21.391 2.592 21.273 C 2.634 21.156 2.678 21.04 2.721 20.923 C 2.77 20.806 2.851 20.705 2.955 20.631 C 3.009 20.592 3.068 20.558 3.129 20.532 C 3.191 20.509 3.256 20.484 3.321 20.462 Z M 2.321 20.877 C 2.198 21.086 2.11 21.314 2.06 21.551 C 2.02 21.675 1.947 21.786 1.848 21.872 C 1.824 21.894 1.798 21.915 1.771 21.936 L 1.75 21.951 L 1.74 21.958 L 1.74 21.964 C 1.74 21.97 1.74 21.964 1.74 21.964 L 1.74 21.972 L 1.71 22.007 C 1.69 22.031 1.669 22.053 1.648 22.074 C 1.659 22.014 1.667 21.954 1.671 21.893 C 1.651 21.846 1.651 21.792 1.671 21.745 C 1.709 21.628 1.74 21.504 1.774 21.385 C 1.812 21.263 1.884 21.155 1.983 21.074 C 2.086 20.993 2.2 20.927 2.321 20.877 Z M 1.336 21.375 C 1.328 21.385 1.319 21.395 1.312 21.405 L 1.294 21.442 C 1.287 21.465 1.275 21.489 1.272 21.507 L 1.258 21.602 C 1.251 21.664 1.246 21.725 1.245 21.784 C 1.247 21.905 1.261 22.026 1.288 22.144 C 1.298 22.206 1.298 22.27 1.288 22.332 C 1.279 22.393 1.265 22.453 1.247 22.513 C 1.23 22.574 1.202 22.63 1.179 22.686 C 1.157 22.742 1.127 22.796 1.1 22.849 C 1.082 22.727 1.058 22.606 1.027 22.487 C 1 22.37 0.964 22.24 0.946 22.117 C 0.935 22.053 0.935 21.987 0.946 21.922 C 0.96 21.856 0.984 21.793 1.017 21.734 C 1.048 21.672 1.088 21.614 1.134 21.561 C 1.157 21.533 1.182 21.508 1.206 21.482 L 1.255 21.433 C 1.278 21.408 1.305 21.388 1.336 21.375 Z M 0.562 22.289 C 0.569 22.418 0.591 22.546 0.628 22.67 C 0.662 22.788 0.712 22.901 0.775 23.005 C 0.805 23.061 0.824 23.122 0.834 23.184 C 0.847 23.245 0.853 23.307 0.851 23.368 C 0.851 23.429 0.851 23.492 0.84 23.553 C 0.828 23.614 0.825 23.67 0.814 23.733 C 0.788 23.678 0.757 23.623 0.726 23.569 C 0.696 23.516 0.664 23.462 0.63 23.407 C 0.561 23.298 0.499 23.191 0.437 23.075 C 0.407 23.017 0.388 22.952 0.382 22.886 C 0.375 22.819 0.378 22.751 0.392 22.684 C 0.407 22.614 0.429 22.546 0.457 22.48 C 0.488 22.415 0.524 22.351 0.562 22.289 Z M 0.117 23.353 C 0.162 23.477 0.223 23.594 0.296 23.704 C 0.367 23.806 0.449 23.899 0.542 23.981 C 0.588 24.027 0.628 24.08 0.659 24.137 C 0.687 24.192 0.71 24.25 0.728 24.309 C 0.747 24.369 0.757 24.426 0.769 24.493 C 0.782 24.559 0.785 24.615 0.793 24.675 C 0.75 24.628 0.711 24.584 0.664 24.539 C 0.617 24.495 0.569 24.453 0.524 24.41 C 0.431 24.325 0.326 24.238 0.239 24.147 C 0.191 24.099 0.151 24.043 0.122 23.981 C 0.096 23.919 0.079 23.853 0.071 23.785 C 0.063 23.715 0.063 23.643 0.071 23.573 C 0.078 23.498 0.093 23.424 0.117 23.353 Z M 0 24.496 C 0.045 24.551 0.089 24.602 0.134 24.649 C 0.177 24.695 0.223 24.738 0.273 24.777 C 0.368 24.858 0.473 24.926 0.586 24.981 C 0.641 25.014 0.691 25.055 0.734 25.103 C 0.78 25.149 0.819 25.2 0.851 25.256 C 0.885 25.311 0.913 25.369 0.937 25.429 C 0.96 25.487 0.985 25.546 1.004 25.604 C 0.899 25.53 0.789 25.464 0.675 25.405 C 0.557 25.345 0.44 25.289 0.329 25.219 C 0.271 25.185 0.22 25.141 0.179 25.088 C 0.137 25.035 0.102 24.977 0.077 24.914 C 0.052 24.849 0.033 24.781 0.021 24.712 C 0.009 24.641 0.002 24.568 0 24.496 Z M 0.178 25.617 C 0.282 25.696 0.393 25.766 0.509 25.826 C 0.624 25.881 0.743 25.924 0.867 25.955 C 0.929 25.976 0.988 26.006 1.041 26.044 C 1.093 26.082 1.14 26.126 1.183 26.174 C 1.226 26.222 1.265 26.273 1.3 26.326 C 1.336 26.38 1.368 26.435 1.398 26.489 C 1.281 26.434 1.159 26.39 1.034 26.356 C 0.91 26.317 0.776 26.286 0.655 26.239 C 0.527 26.195 0.417 26.11 0.342 25.997 C 0.302 25.941 0.269 25.88 0.244 25.815 C 0.216 25.751 0.194 25.685 0.178 25.617 Z M 0.586 26.661 C 0.704 26.719 0.827 26.765 0.953 26.8 C 1.077 26.834 1.204 26.854 1.332 26.861 C 1.461 26.882 1.582 26.937 1.683 27.021 C 1.783 27.102 1.872 27.195 1.951 27.296 C 1.825 27.263 1.696 27.24 1.566 27.228 C 1.435 27.214 1.301 27.202 1.169 27.186 C 1.035 27.165 0.912 27.102 0.817 27.006 C 0.719 26.906 0.641 26.79 0.586 26.661 Z M 1.171 27.609 C 1.298 27.646 1.428 27.67 1.559 27.682 C 1.687 27.695 1.817 27.695 1.945 27.682 C 2.077 27.68 2.207 27.715 2.32 27.781 C 2.377 27.812 2.432 27.847 2.483 27.887 C 2.533 27.928 2.585 27.967 2.63 28.004 C 2.499 27.994 2.368 27.994 2.237 28.004 C 2.103 28.013 1.97 28.024 1.836 28.03 C 1.701 28.033 1.567 27.992 1.457 27.913 C 1.401 27.873 1.349 27.827 1.302 27.777 C 1.253 27.726 1.209 27.669 1.171 27.609 Z M 1.907 28.445 C 2.039 28.46 2.171 28.462 2.304 28.452 C 2.433 28.442 2.561 28.419 2.685 28.383 C 2.751 28.37 2.818 28.366 2.885 28.373 C 2.948 28.38 3.011 28.394 3.072 28.415 C 3.192 28.459 3.307 28.517 3.414 28.586 C 3.284 28.598 3.154 28.62 3.027 28.653 C 2.897 28.683 2.764 28.721 2.634 28.746 C 2.5 28.774 2.361 28.756 2.239 28.695 C 2.176 28.666 2.117 28.63 2.064 28.586 C 2.007 28.545 1.954 28.497 1.907 28.445 Z M 2.772 29.153 C 2.905 29.143 3.037 29.121 3.167 29.088 C 3.293 29.055 3.416 29.009 3.532 28.949 C 3.594 28.924 3.659 28.908 3.725 28.903 C 3.789 28.898 3.853 28.9 3.916 28.909 C 3.978 28.918 4.039 28.932 4.099 28.949 C 4.16 28.967 4.216 28.988 4.276 29.008 C 4.151 29.047 4.029 29.095 3.911 29.153 C 3.793 29.207 3.667 29.269 3.542 29.321 C 3.415 29.372 3.274 29.379 3.142 29.342 C 3.075 29.324 3.01 29.298 2.948 29.266 C 2.887 29.232 2.828 29.194 2.772 29.153 Z M 3.762 29.693 C 3.892 29.659 4.019 29.612 4.139 29.552 C 4.256 29.494 4.367 29.423 4.467 29.339 C 4.522 29.302 4.582 29.272 4.645 29.251 C 4.705 29.231 4.767 29.219 4.83 29.213 C 4.892 29.207 4.955 29.207 5.017 29.213 C 5.078 29.214 5.139 29.219 5.199 29.227 C 5.089 29.296 4.984 29.372 4.884 29.455 C 4.778 29.539 4.672 29.626 4.562 29.704 C 4.506 29.743 4.442 29.773 4.375 29.79 C 4.308 29.806 4.239 29.813 4.171 29.811 C 4.1 29.806 4.031 29.793 3.963 29.775 C 3.894 29.753 3.826 29.726 3.762 29.693 Z M 4.859 30.018 C 4.921 29.984 4.981 29.947 5.04 29.908 C 5.094 29.872 5.146 29.833 5.195 29.791 C 5.295 29.705 5.383 29.608 5.459 29.5 C 5.501 29.45 5.55 29.405 5.605 29.37 C 5.656 29.334 5.712 29.304 5.77 29.282 C 5.828 29.26 5.886 29.241 5.946 29.225 L 6.121 29.188 C 6.08 29.233 6.041 29.288 6.003 29.337 C 5.966 29.386 5.926 29.442 5.886 29.497 C 5.809 29.614 5.731 29.716 5.645 29.825 C 5.601 29.878 5.547 29.923 5.486 29.957 C 5.426 29.992 5.36 30.016 5.291 30.028 C 5.221 30.043 5.149 30.049 5.077 30.046 C 5.004 30.042 4.931 30.033 4.859 30.018 Z M 6.022 30.048 C 6.073 29.999 6.121 29.947 6.165 29.893 C 6.207 29.841 6.246 29.787 6.282 29.732 C 6.352 29.622 6.408 29.505 6.448 29.381 C 6.474 29.32 6.507 29.263 6.548 29.211 C 6.587 29.162 6.629 29.117 6.676 29.075 C 6.723 29.037 6.774 29.002 6.827 28.97 C 6.877 28.938 6.93 28.909 6.984 28.883 C 6.932 29.001 6.888 29.123 6.851 29.247 C 6.83 29.31 6.809 29.375 6.789 29.441 C 6.769 29.506 6.744 29.568 6.718 29.632 C 6.69 29.697 6.65 29.757 6.601 29.809 C 6.553 29.857 6.5 29.899 6.441 29.933 C 6.377 29.967 6.309 29.994 6.239 30.012 C 6.168 30.031 6.095 30.043 6.022 30.048 Z M 7.151 29.737 C 7.215 29.616 7.266 29.489 7.303 29.357 C 7.337 29.23 7.355 29.099 7.358 28.968 C 7.364 28.902 7.379 28.838 7.405 28.777 C 7.43 28.719 7.46 28.663 7.495 28.611 C 7.532 28.561 7.571 28.512 7.613 28.466 C 7.654 28.421 7.698 28.378 7.745 28.338 C 7.733 28.401 7.725 28.464 7.72 28.528 C 7.72 28.593 7.72 28.662 7.711 28.728 C 7.702 28.793 7.711 28.862 7.704 28.931 C 7.697 29 7.704 29.07 7.692 29.135 C 7.678 29.274 7.615 29.404 7.514 29.502 C 7.464 29.553 7.407 29.599 7.346 29.637 C 7.283 29.675 7.218 29.708 7.151 29.737 Z M 8.131 29.12 C 8.159 28.987 8.174 28.852 8.176 28.716 C 8.175 28.584 8.16 28.453 8.131 28.325 C 8.114 28.194 8.133 28.061 8.186 27.941 C 8.21 27.882 8.24 27.825 8.274 27.772 C 8.309 27.718 8.342 27.662 8.379 27.613 C 8.385 27.745 8.4 27.876 8.424 28.006 C 8.448 28.138 8.479 28.275 8.497 28.408 C 8.509 28.476 8.509 28.545 8.497 28.613 C 8.483 28.68 8.458 28.745 8.423 28.804 C 8.388 28.865 8.346 28.922 8.299 28.974 C 8.246 29.026 8.19 29.074 8.131 29.12 Z M 8.917 28.299 C 8.915 28.165 8.901 28.031 8.875 27.899 C 8.849 27.77 8.81 27.644 8.758 27.523 C 8.72 27.397 8.716 27.264 8.746 27.137 C 8.761 27.075 8.781 27.015 8.805 26.957 C 8.821 26.902 8.842 26.848 8.866 26.796 C 8.882 26.856 8.902 26.916 8.925 26.974 C 8.951 27.035 8.971 27.091 8.993 27.159 C 9.039 27.284 9.091 27.411 9.135 27.54 C 9.177 27.67 9.177 27.81 9.135 27.94 C 9.112 28.005 9.083 28.068 9.046 28.128 C 9.009 28.189 8.966 28.246 8.917 28.299 Z M 9.721 26.917 C 9.628 26.669 9.504 26.433 9.352 26.217 C 9.205 25.972 9.269 25.663 9.359 25.408 C 9.444 25.67 9.566 25.919 9.721 26.148 C 9.866 26.381 9.818 26.665 9.721 26.917 Z M 10.072 25.902 C 9.981 25.653 9.858 25.418 9.707 25.201 C 9.561 24.956 9.625 24.649 9.715 24.393 C 9.799 24.653 9.919 24.899 10.072 25.125 C 10.217 25.369 10.17 25.648 10.072 25.902 Z M 10.423 24.886 C 10.333 24.638 10.212 24.403 10.062 24.186 C 9.917 23.942 9.981 23.635 10.072 23.378 C 10.153 23.638 10.272 23.885 10.423 24.111 C 10.569 24.353 10.521 24.63 10.423 24.886 Z M 10.775 23.869 C 10.687 23.621 10.566 23.385 10.416 23.169 C 10.275 22.925 10.34 22.618 10.43 22.362 C 10.512 22.621 10.63 22.868 10.782 23.093 C 10.919 23.337 10.872 23.616 10.775 23.869 Z M 11.126 22.853 C 11.04 22.605 10.922 22.37 10.775 22.152 C 10.635 21.909 10.7 21.602 10.791 21.347 C 10.867 21.605 10.98 21.851 11.126 22.077 C 11.269 22.32 11.221 22.599 11.126 22.853 Z M 11.477 21.836 C 11.392 21.588 11.273 21.353 11.126 21.135 C 10.989 20.893 11.055 20.587 11.146 20.331 C 11.221 20.589 11.333 20.835 11.477 21.062 C 11.618 21.302 11.57 21.581 11.477 21.836 Z" fill="rgb(244,206,206)"></path>
          <path d="M 11.821 20.818 C 11.736 20.573 11.621 20.34 11.477 20.125 C 11.343 19.884 11.41 19.577 11.5 19.323 C 11.575 19.578 11.686 19.821 11.829 20.045 C 11.967 20.286 11.918 20.565 11.821 20.818 Z M 12.167 19.8 C 12.143 19.73 12.118 19.662 12.091 19.599 L 12.051 19.505 L 12.03 19.458 L 12.02 19.435 L 12.02 19.376 L 12.02 19.416 C 11.972 19.31 11.918 19.207 11.857 19.108 C 11.74 18.864 11.811 18.56 11.911 18.307 C 11.974 18.563 12.073 18.809 12.206 19.038 C 12.276 19.183 12.294 19.347 12.26 19.505 L 12.283 19.368 C 12.283 19.413 12.276 19.458 12.263 19.501 L 12.263 19.532 C 12.263 19.544 12.263 19.558 12.256 19.57 C 12.249 19.582 12.243 19.621 12.236 19.647 C 12.217 19.699 12.194 19.751 12.167 19.8 Z M 12.532 18.802 C 12.462 18.557 12.361 18.321 12.232 18.102 C 12.115 17.859 12.191 17.555 12.291 17.303 C 12.35 17.558 12.446 17.803 12.576 18.029 C 12.697 18.274 12.638 18.551 12.532 18.802 Z M 12.912 17.796 C 12.845 17.554 12.748 17.321 12.623 17.102 C 12.506 16.861 12.587 16.558 12.687 16.306 C 12.743 16.559 12.835 16.802 12.961 17.029 C 13.076 17.268 13.016 17.545 12.912 17.796 Z M 13.29 16.789 C 13.228 16.549 13.135 16.318 13.013 16.101 C 12.903 15.86 12.984 15.559 13.084 15.306 C 13.135 15.557 13.223 15.799 13.345 16.024 C 13.456 16.263 13.396 16.539 13.29 16.789 Z M 13.67 15.783 C 13.611 15.545 13.522 15.315 13.405 15.099 C 13.299 14.866 13.382 14.559 13.484 14.308 C 13.53 14.556 13.613 14.796 13.73 15.02 C 13.835 15.257 13.774 15.532 13.67 15.783 Z M 14.054 14.777 C 13.999 14.541 13.915 14.313 13.803 14.098 C 13.703 13.864 13.787 13.561 13.889 13.309 C 13.932 13.554 14.011 13.793 14.123 14.016 C 14.215 14.251 14.152 14.526 14.054 14.777 Z M 14.428 13.774 C 14.377 13.541 14.298 13.314 14.193 13.1 C 14.099 12.866 14.185 12.566 14.287 12.314 C 14.324 12.557 14.397 12.793 14.503 13.014 C 14.594 13.244 14.532 13.52 14.428 13.774 Z M 14.806 12.765 C 14.76 12.534 14.686 12.309 14.586 12.096 C 14.498 11.862 14.586 11.565 14.688 11.314 C 14.719 11.555 14.786 11.791 14.886 12.014 C 14.973 12.239 14.91 12.514 14.806 12.765 Z M 15.184 11.758 C 15.143 11.531 15.075 11.308 14.982 11.096 C 14.901 10.863 14.99 10.568 15.099 10.317 C 15.125 10.554 15.185 10.786 15.278 11.005 C 15.354 11.233 15.288 11.507 15.184 11.758 Z M 15.564 10.752 C 15.527 10.528 15.466 10.308 15.38 10.097 C 15.305 9.871 15.397 9.572 15.497 9.321 C 15.517 9.554 15.571 9.784 15.656 10.002 C 15.734 10.227 15.667 10.506 15.564 10.752 Z M 15.943 9.746 C 15.913 9.525 15.858 9.307 15.779 9.098 C 15.712 8.874 15.806 8.576 15.912 8.326 C 15.924 8.556 15.969 8.782 16.045 8.999 C 16.114 9.222 16.045 9.495 15.943 9.746 Z M 16.323 8.741 C 16.298 8.523 16.251 8.308 16.181 8.1 C 16.122 7.879 16.22 7.583 16.325 7.332 C 16.332 7.558 16.371 7.782 16.442 7.997 C 16.496 8.217 16.426 8.49 16.323 8.741 Z M 16.704 7.736 C 16.687 7.522 16.648 7.31 16.587 7.103 C 16.538 6.886 16.638 6.591 16.744 6.34 C 16.743 6.561 16.772 6.782 16.832 6.996 C 16.879 7.213 16.807 7.485 16.704 7.736 Z M 17.087 6.732 C 17.076 6.521 17.045 6.312 16.994 6.107 C 16.954 5.894 17.058 5.6 17.167 5.35 C 17.156 5.567 17.176 5.785 17.226 5.996 C 17.265 6.21 17.19 6.481 17.087 6.732 Z M 17.527 5.465 L 17.527 5.45 C 17.527 5.443 17.518 5.435 17.514 5.427 C 17.509 5.419 17.514 5.419 17.514 5.414 C 17.514 5.409 17.514 5.391 17.505 5.379 C 17.506 5.382 17.506 5.386 17.505 5.389 L 17.505 5.345 C 17.501 5.334 17.497 5.323 17.494 5.311 C 17.468 5.266 17.448 5.216 17.435 5.165 C 17.469 5.355 17.488 5.546 17.493 5.739 C 17.518 5.675 17.541 5.612 17.561 5.548 C 17.561 5.532 17.555 5.516 17.552 5.5 C 17.54 5.492 17.531 5.48 17.527 5.465 Z M 18.091 3.596 C 18.047 3.654 18.008 3.715 17.974 3.779 C 17.942 3.837 17.915 3.898 17.892 3.961 C 17.875 4.016 17.864 4.073 17.859 4.131 L 17.859 4.578 C 17.876 4.588 17.893 4.599 17.908 4.611 C 17.917 4.589 17.926 4.567 17.934 4.546 C 17.959 4.488 17.98 4.428 17.997 4.368 C 18.014 4.309 18.035 4.251 18.048 4.199 C 18.06 4.146 18.068 4.092 18.071 4.038 C 18.081 3.942 18.09 3.845 18.109 3.741 C 18.132 3.633 18.167 3.527 18.212 3.425 C 18.178 3.48 18.133 3.537 18.091 3.596 Z M 18.353 3.819 C 18.385 3.714 18.408 3.615 18.437 3.524 C 18.465 3.433 18.486 3.344 18.508 3.253 C 18.526 3.2 18.551 3.149 18.581 3.102 C 18.615 3.045 18.654 2.992 18.698 2.942 C 18.79 2.834 18.89 2.734 18.998 2.642 C 18.933 2.729 18.878 2.824 18.835 2.924 C 18.794 3.013 18.76 3.104 18.731 3.197 C 18.713 3.248 18.692 3.297 18.666 3.344 C 18.638 3.393 18.611 3.447 18.577 3.5 C 18.543 3.552 18.506 3.605 18.469 3.66 C 18.433 3.714 18.393 3.767 18.353 3.819 Z M 19.029 3.019 C 19.08 2.918 19.129 2.834 19.171 2.749 C 19.213 2.664 19.255 2.587 19.288 2.505 C 19.35 2.401 19.429 2.308 19.522 2.231 C 19.627 2.137 19.737 2.05 19.853 1.969 C 19.78 2.047 19.714 2.13 19.655 2.218 C 19.6 2.3 19.553 2.381 19.507 2.462 C 19.449 2.56 19.381 2.651 19.303 2.734 C 19.261 2.781 19.218 2.83 19.171 2.876 Z M 19.819 2.31 C 19.951 2.133 20.053 1.997 20.156 1.851 C 20.334 1.663 20.542 1.505 20.772 1.384 C 20.618 1.51 20.48 1.655 20.362 1.815 C 20.199 1.999 20.017 2.165 19.819 2.31 Z M 20.678 1.676 L 21.069 1.276 C 21.268 1.111 21.487 0.973 21.722 0.865 C 21.558 0.973 21.406 1.097 21.266 1.235 C 21.082 1.397 20.885 1.545 20.678 1.676 Z M 21.584 1.102 C 21.753 0.965 21.886 0.868 22.017 0.76 C 22.233 0.622 22.462 0.505 22.7 0.41 C 22.527 0.498 22.362 0.601 22.207 0.717 C 22.057 0.817 21.818 0.964 21.584 1.102 Z M 22.523 0.584 C 22.704 0.467 22.848 0.383 22.991 0.302 C 23.221 0.187 23.458 0.086 23.701 0 C 23.52 0.065 23.344 0.143 23.174 0.233 Z" fill="rgb(244,206,206)"></path>
        </g></g></g></g>
</svg>