<!-- logo_word_ssmall -->
<svg xmlns="http://www.w3.org/2000/svg" width="112" height="30">
  <g transform="translate(0 -0.02)">
    <g transform="translate(0 0)">
      <path d="M 15.664 21.171 C 12.764 21.222 11.007 21.247 10.393 21.247 C 9.778 21.247 8.175 21.222 5.584 21.171 C 3.855 25.554 2.769 28.539 2.327 30.124 C 1.695 30.024 1.085 29.814 0.525 29.502 C 0.205 29.323 0.005 28.986 0 28.619 C 0 28.27 0.555 26.798 1.666 24.203 C 5.391 15.414 7.963 8.555 9.384 3.626 C 9.936 3.543 10.493 3.504 11.05 3.509 C 11.67 3.509 12.111 3.621 12.369 3.839 C 12.627 4.057 12.913 4.638 13.184 5.571 C 14.816 10.843 16.447 15.622 18.078 19.905 C 19.709 24.189 20.969 27.189 21.859 28.905 C 21.134 29.423 20.513 29.682 19.997 29.682 C 19.169 29.682 18.613 29.332 18.33 28.632 C 17.847 27.365 16.958 24.878 15.664 21.171 Z M 14.848 18.874 C 13.969 16.567 12.639 12.664 10.857 7.166 C 10.624 7.762 10.029 9.422 9.074 12.146 C 8.119 14.87 7.279 17.112 6.554 18.874 C 8.569 18.92 10.262 18.942 11.632 18.942 C 13.002 18.942 14.075 18.92 14.851 18.874 Z M 36.37 17.164 L 36.291 22.414 C 36.291 25.398 36.537 27.628 37.028 29.104 C 36.561 29.323 36.05 29.43 35.536 29.415 C 34.954 29.415 34.546 29.282 34.315 29.009 C 34.04 28.627 33.878 28.175 33.85 27.705 C 32.246 29.029 30.592 29.69 28.886 29.688 C 24.899 29.688 22.906 27.86 22.906 24.203 C 22.906 22.88 23.216 21.907 23.835 21.285 C 24.555 20.608 25.436 20.126 26.393 19.886 C 28.333 19.368 30.788 19.018 33.76 18.836 C 33.76 16.632 33.489 15.109 32.945 14.265 C 32.401 13.422 31.25 13 29.492 13 C 28.693 13.023 27.916 13.265 27.244 13.701 C 26.464 14.174 25.854 14.882 25.499 15.724 C 24.312 15.49 23.718 14.971 23.716 14.167 C 23.716 13.154 24.336 12.344 25.578 11.737 C 26.819 11.13 28.409 10.825 30.346 10.823 C 32.283 10.823 33.769 11.283 34.804 12.203 C 35.839 13.123 36.361 14.777 36.37 17.164 Z M 33.733 20.819 C 32.983 20.899 32.421 20.964 32.048 21.015 C 31.673 21.067 31.167 21.13 30.534 21.209 C 30.058 21.259 29.586 21.337 29.12 21.443 C 28.81 21.52 28.427 21.623 27.976 21.754 C 27.618 21.84 27.277 21.985 26.967 22.182 C 26.747 22.338 26.521 22.504 26.287 22.687 C 25.844 23.062 25.601 23.623 25.63 24.203 C 25.63 25.371 25.966 26.233 26.638 26.792 C 27.364 27.367 28.272 27.662 29.196 27.626 C 30.856 27.665 32.462 27.034 33.654 25.875 C 33.629 25.512 33.616 24.851 33.616 23.892 C 33.616 22.932 33.654 21.91 33.733 20.819 Z M 51.18 15.528 C 50.846 14.722 50.224 14.07 49.435 13.701 C 48.608 13.248 47.683 13.007 46.741 13 C 45.901 12.975 45.077 13.228 44.395 13.72 C 43.764 14.169 43.4 14.907 43.427 15.683 C 43.396 16.46 43.79 17.192 44.455 17.592 C 45.225 18.071 46.071 18.413 46.956 18.604 C 47.938 18.839 48.92 19.105 49.903 19.403 C 50.872 19.692 51.74 20.252 52.403 21.018 C 53.086 21.795 53.431 22.807 53.431 24.051 C 53.431 25.892 52.771 27.293 51.452 28.253 C 50.14 29.209 48.555 29.713 46.934 29.691 C 45.425 29.73 43.928 29.424 42.555 28.796 C 41.326 28.202 40.711 27.462 40.711 26.579 C 40.711 25.83 41.293 25.284 42.457 24.942 C 42.774 25.812 43.444 26.505 44.3 26.852 C 45.265 27.298 46.317 27.524 47.38 27.514 C 48.493 27.514 49.391 27.268 50.077 26.775 C 50.756 26.296 51.145 25.502 51.107 24.67 C 51.107 23.764 50.764 23.102 50.079 22.687 C 49.302 22.236 48.457 21.914 47.578 21.732 C 46.594 21.514 45.612 21.255 44.631 20.955 C 43.647 20.657 42.776 20.068 42.13 19.264 C 41.445 18.446 41.103 17.298 41.103 15.861 C 41.103 14.423 41.769 13.221 43.098 12.261 C 44.3 11.348 45.761 10.844 47.268 10.823 C 48.617 10.803 49.954 11.082 51.183 11.642 C 52.346 12.187 52.928 12.901 52.928 13.782 C 52.928 14.664 52.346 15.246 51.18 15.528 Z M 89.798 17.164 L 89.722 22.414 C 89.722 25.398 89.968 27.628 90.459 29.104 C 89.992 29.323 89.481 29.43 88.967 29.415 C 88.385 29.415 87.977 29.282 87.743 29.009 C 87.47 28.626 87.309 28.175 87.278 27.705 C 85.678 29.029 84.024 29.69 82.315 29.688 C 78.328 29.688 76.334 27.86 76.334 24.203 C 76.334 22.88 76.644 21.907 77.264 21.285 C 77.984 20.607 78.866 20.125 79.824 19.886 C 81.762 19.368 84.217 19.018 87.191 18.836 C 87.191 16.632 86.92 15.109 86.376 14.265 C 85.832 13.422 84.682 13 82.926 13 C 82.126 13.023 81.348 13.265 80.675 13.701 C 79.896 14.173 79.285 14.882 78.933 15.724 C 77.742 15.49 77.147 14.971 77.147 14.167 C 77.147 13.154 77.768 12.344 79.009 11.737 C 80.25 11.13 81.84 10.825 83.777 10.823 C 85.718 10.823 87.205 11.283 88.238 12.203 C 89.271 13.123 89.791 14.777 89.798 17.164 Z M 87.162 20.819 C 86.415 20.899 85.853 20.964 85.476 21.015 C 85.101 21.067 84.598 21.13 83.965 21.209 C 83.488 21.259 83.015 21.337 82.548 21.443 C 82.238 21.52 81.858 21.623 81.404 21.754 C 81.047 21.841 80.706 21.985 80.395 22.182 C 80.178 22.338 79.95 22.504 79.718 22.687 C 79.273 23.06 79.029 23.622 79.058 24.203 C 79.058 25.371 79.394 26.233 80.066 26.792 C 80.794 27.367 81.702 27.663 82.627 27.626 C 84.287 27.664 85.893 27.034 87.085 25.875 C 87.058 25.512 87.047 24.852 87.047 23.892 C 87.047 22.932 87.085 21.91 87.162 20.819 Z M 95.689 6.037 C 95.689 4.764 95.055 4 93.786 3.743 C 93.53 3.335 93.397 2.862 93.4 2.38 C 93.41 1.868 93.652 1.389 94.058 1.079 C 94.514 0.696 95.095 0.495 95.689 0.514 C 96.362 0.527 96.988 0.859 97.377 1.409 C 97.854 2.007 98.092 3.025 98.092 4.463 C 98.072 5.971 97.606 7.439 96.755 8.682 C 95.863 10.057 94.81 10.744 93.596 10.744 C 92.924 10.744 92.588 10.355 92.588 9.577 C 92.583 9.421 92.596 9.264 92.626 9.111 L 92.821 9.111 C 93.611 9.126 94.365 8.783 94.874 8.178 C 95.403 7.592 95.694 6.828 95.689 6.037 Z M 109.88 15.528 C 109.544 14.723 108.922 14.072 108.134 13.701 C 107.308 13.248 106.382 13.007 105.44 13 C 104.601 12.975 103.776 13.228 103.094 13.72 C 102.463 14.169 102.098 14.907 102.124 15.683 C 102.093 16.46 102.487 17.192 103.151 17.592 C 103.922 18.07 104.768 18.412 105.652 18.604 C 106.635 18.839 107.617 19.105 108.599 19.403 C 109.569 19.692 110.436 20.252 111.1 21.018 C 111.785 21.796 112.128 22.807 112.128 24.051 C 112.128 25.892 111.469 27.293 110.151 28.253 C 108.84 29.209 107.255 29.713 105.633 29.691 C 104.124 29.73 102.625 29.424 101.251 28.796 C 100.026 28.202 99.413 27.462 99.411 26.579 C 99.411 25.83 99.993 25.284 101.156 24.942 C 101.473 25.811 102.142 26.505 102.997 26.852 C 103.963 27.298 105.015 27.525 106.079 27.514 C 107.19 27.514 108.088 27.268 108.773 26.775 C 109.452 26.296 109.84 25.502 109.801 24.67 C 109.801 23.764 109.458 23.102 108.773 22.687 C 107.996 22.236 107.152 21.914 106.272 21.732 C 105.29 21.514 104.308 21.255 103.325 20.955 C 102.342 20.656 101.47 20.067 100.824 19.264 C 100.139 18.446 99.797 17.298 99.797 15.861 C 99.797 14.423 100.463 13.221 101.795 12.261 C 102.996 11.348 104.456 10.845 105.962 10.823 C 107.312 10.803 108.65 11.082 109.88 11.642 C 111.043 12.187 111.625 12.901 111.625 13.782 C 111.625 14.664 111.043 15.246 109.88 15.528 Z" fill="rgb(78,76,103)"></path>
      <path d="M 68.529 27.432 L 68.76 16.968 C 68.803 15.914 68.426 14.886 67.714 14.11 C 67.016 13.372 66.247 13.002 65.406 13 C 64.416 13.036 63.446 13.282 62.557 13.72 C 61.572 14.146 60.687 14.776 59.961 15.569 C 59.857 19.251 59.806 21.934 59.806 23.62 C 59.806 25.305 59.896 27.185 60.078 29.26 C 59.643 29.34 59.201 29.38 58.759 29.377 C 57.596 29.377 57.014 28.886 57.014 27.899 C 57.014 27.692 57.04 26.551 57.093 24.476 C 57.299 18.303 57.403 13.175 57.403 9.092 C 57.403 5.008 57.298 2.149 57.087 0.514 C 57.548 0.431 58.016 0.392 58.485 0.397 C 59.648 0.397 60.23 0.871 60.23 1.818 C 60.23 2.765 60.139 6.571 59.958 13.234 C 61.672 11.68 63.9 10.821 66.21 10.823 C 69.701 10.823 71.445 12.846 71.443 16.892 L 71.289 23.232 C 71.289 25.616 71.509 27.573 71.949 29.104 C 71.425 29.313 70.866 29.419 70.302 29.415 C 69.82 29.452 69.344 29.29 68.983 28.968 C 68.676 28.671 68.529 28.158 68.529 27.432 Z" fill="rgb(244,206,206)"></path>
      <path d="M 68.529 27.432 L 68.76 16.968 C 68.803 15.914 68.426 14.886 67.714 14.11 C 67.016 13.372 66.247 13.002 65.406 13 C 64.416 13.036 63.446 13.282 62.557 13.72 C 61.572 14.146 60.687 14.776 59.961 15.569 C 59.857 19.251 59.806 21.934 59.806 23.62 C 59.806 25.305 59.896 27.185 60.078 29.26 C 59.643 29.34 59.201 29.38 58.759 29.377 C 57.596 29.377 57.014 28.886 57.014 27.899 C 57.014 27.692 57.04 26.551 57.093 24.476 C 57.299 18.303 57.403 13.175 57.403 9.092 C 57.403 5.008 57.298 2.149 57.087 0.514 C 57.548 0.431 58.016 0.392 58.485 0.397 C 59.648 0.397 60.23 0.871 60.23 1.818 C 60.23 2.765 60.139 6.571 59.958 13.234 C 61.672 11.68 63.9 10.821 66.21 10.823 C 69.701 10.823 71.445 12.846 71.443 16.892 L 71.289 23.232 C 71.289 25.616 71.509 27.573 71.949 29.104 C 71.425 29.313 70.866 29.419 70.302 29.415 C 69.82 29.452 69.344 29.29 68.983 28.968 C 68.676 28.671 68.529 28.158 68.529 27.432 Z" fill="transparent"></path>
      <path d="M 72.183 28.313 C 71.96 28.149 71.721 28.008 71.471 27.891 C 71.226 27.715 71.077 27.436 71.066 27.135 C 71.273 27.34 71.513 27.508 71.775 27.634 C 72.008 27.786 72.158 28.036 72.183 28.313 Z M 71.955 27.056 C 71.746 26.871 71.517 26.71 71.272 26.576 C 71.042 26.385 70.912 26.099 70.919 25.799 C 71.114 26.016 71.342 26.2 71.596 26.344 C 71.818 26.513 71.951 26.776 71.955 27.056 Z M 71.81 25.774 C 71.614 25.576 71.395 25.402 71.158 25.256 C 70.939 25.054 70.823 24.763 70.843 24.465 C 71.028 24.689 71.247 24.882 71.492 25.038 C 71.707 25.22 71.825 25.493 71.81 25.774 Z M 71.734 24.479 C 71.547 24.273 71.336 24.09 71.106 23.933 C 70.894 23.718 70.794 23.415 70.835 23.115 C 71.009 23.348 71.219 23.552 71.457 23.718 C 71.665 23.913 71.768 24.195 71.734 24.479 Z M 71.713 23.194 C 71.54 22.975 71.338 22.78 71.115 22.613 C 70.909 22.399 70.809 22.104 70.843 21.809 C 71.017 22.041 71.222 22.249 71.452 22.425 C 71.658 22.624 71.755 22.911 71.713 23.194 Z M 71.745 21.88 C 71.573 21.66 71.372 21.465 71.147 21.299 C 70.937 21.082 70.837 20.781 70.875 20.481 C 71.051 20.718 71.26 20.93 71.495 21.108 C 71.698 21.309 71.792 21.597 71.745 21.88 Z M 71.767 20.562 C 71.593 20.344 71.392 20.149 71.169 19.982 C 70.963 19.762 70.868 19.461 70.911 19.163 C 71.084 19.396 71.288 19.603 71.517 19.78 C 71.724 19.983 71.818 20.276 71.767 20.562 Z M 71.81 19.248 C 71.641 19.03 71.444 18.836 71.223 18.67 C 71.014 18.452 70.914 18.152 70.951 17.852 C 71.124 18.084 71.328 18.29 71.558 18.465 C 71.764 18.669 71.858 18.961 71.81 19.248 Z M 71.843 17.931 C 71.668 17.712 71.466 17.517 71.242 17.35 C 71.043 17.134 70.95 16.84 70.987 16.548 C 71.16 16.779 71.364 16.986 71.593 17.162 C 71.795 17.363 71.888 17.649 71.843 17.931 Z M 71.859 16.594 C 71.681 16.376 71.466 16.192 71.223 16.049 C 71.009 15.862 70.88 15.597 70.864 15.312 C 71.079 15.501 71.308 15.673 71.55 15.825 C 71.668 15.908 71.757 16.027 71.805 16.163 C 71.847 16.303 71.865 16.449 71.859 16.594 Z M 71.767 15.228 C 71.563 15.034 71.325 14.88 71.066 14.772 C 70.83 14.623 70.662 14.385 70.598 14.112 C 70.842 14.258 71.094 14.388 71.354 14.502 C 71.484 14.568 71.59 14.674 71.656 14.805 C 71.715 14.939 71.753 15.082 71.767 15.228 Z M 71.443 13.875 C 71.325 13.797 71.2 13.729 71.071 13.671 C 70.94 13.619 70.804 13.581 70.666 13.556 C 70.532 13.52 70.411 13.446 70.318 13.343 C 70.22 13.254 70.137 13.149 70.073 13.032 C 70.313 13.131 70.617 13.152 70.889 13.229 C 71.03 13.27 71.155 13.355 71.245 13.472 C 71.337 13.592 71.405 13.729 71.443 13.875 Z M 70.843 12.585 C 70.575 12.491 70.29 12.456 70.008 12.484 C 69.739 12.474 69.483 12.365 69.288 12.179 C 69.56 12.179 69.831 12.124 70.13 12.108 C 70.206 12.105 70.281 12.114 70.353 12.135 C 70.421 12.161 70.484 12.197 70.541 12.242 C 70.665 12.333 70.768 12.451 70.843 12.585 Z M 69.878 11.511 C 69.735 11.506 69.591 11.517 69.451 11.543 C 69.313 11.575 69.179 11.622 69.051 11.682 C 68.791 11.757 68.513 11.732 68.271 11.612 C 68.536 11.516 68.796 11.405 69.049 11.279 C 69.346 11.195 69.666 11.284 69.878 11.511 Z M 68.63 10.791 C 68.36 10.878 68.109 11.018 67.893 11.202 C 67.657 11.351 67.372 11.401 67.099 11.342 C 67.335 11.183 67.562 11.011 67.779 10.826 C 68.036 10.663 68.36 10.65 68.63 10.791 Z M 67.26 10.461 C 67.014 10.608 66.801 10.802 66.632 11.033 C 66.424 11.228 66.146 11.327 65.863 11.306 C 66.077 11.117 66.273 10.909 66.45 10.684 C 66.549 10.577 66.678 10.503 66.819 10.472 C 66.964 10.442 67.114 10.438 67.26 10.461 Z M 65.882 10.395 C 65.663 10.577 65.479 10.797 65.338 11.044 C 65.16 11.266 64.898 11.402 64.615 11.421 C 64.799 11.203 64.964 10.969 65.107 10.722 C 65.29 10.484 65.584 10.36 65.882 10.395 Z M 64.517 10.534 C 64.329 10.746 64.181 10.99 64.079 11.254 C 63.935 11.497 63.697 11.67 63.421 11.732 C 63.572 11.489 63.7 11.234 63.805 10.968 C 63.952 10.71 64.221 10.546 64.517 10.534 Z M 63.182 10.87 C 63.03 11.108 62.92 11.371 62.859 11.647 C 62.749 11.909 62.538 12.114 62.274 12.217 C 62.39 11.953 62.481 11.679 62.546 11.399 C 62.655 11.126 62.895 10.927 63.182 10.87 Z M 61.915 11.396 C 61.797 11.654 61.725 11.931 61.703 12.214 C 61.63 12.49 61.447 12.724 61.198 12.861 C 61.278 12.585 61.332 12.302 61.358 12.015 C 61.427 11.727 61.637 11.494 61.915 11.396 Z M 60.42 11.982 C 60.247 11.761 60.046 11.563 59.822 11.393 C 59.619 11.173 59.524 10.873 59.564 10.575 C 59.736 10.809 59.94 11.017 60.17 11.194 C 60.375 11.401 60.468 11.695 60.42 11.982 Z M 60.453 10.646 C 60.28 10.425 60.078 10.227 59.852 10.06 C 59.65 9.839 59.557 9.539 59.597 9.242 C 59.768 9.476 59.972 9.684 60.203 9.861 C 60.407 10.067 60.5 10.359 60.453 10.646 Z M 60.485 9.312 C 60.313 9.091 60.111 8.895 59.885 8.729 C 59.681 8.508 59.586 8.208 59.626 7.911 C 59.799 8.144 60.004 8.352 60.235 8.527 C 60.438 8.734 60.531 9.026 60.485 9.312 Z M 60.515 7.976 C 60.342 7.757 60.141 7.562 59.917 7.395 C 59.713 7.175 59.618 6.875 59.659 6.577 C 59.831 6.809 60.036 7.016 60.265 7.191 C 60.471 7.396 60.565 7.689 60.515 7.976 Z M 60.548 6.642 C 60.375 6.423 60.173 6.227 59.947 6.062 C 59.745 5.841 59.651 5.541 59.692 5.243 C 59.863 5.476 60.067 5.683 60.298 5.857 C 60.503 6.063 60.596 6.356 60.548 6.642 Z M 60.581 5.306 C 60.407 5.087 60.205 4.893 59.98 4.728 C 59.775 4.508 59.68 4.208 59.722 3.91 C 59.894 4.142 60.099 4.347 60.33 4.521 C 60.535 4.727 60.628 5.019 60.581 5.306 Z M 60.621 3.972 C 60.447 3.756 60.246 3.562 60.023 3.397 C 59.818 3.178 59.723 2.877 59.765 2.579 C 59.931 2.811 60.127 3.019 60.35 3.198 C 60.561 3.396 60.663 3.685 60.621 3.972 Z M 60.643 2.639 C 60.47 2.421 60.268 2.227 60.042 2.063 C 59.943 1.967 59.867 1.85 59.819 1.72 C 59.773 1.608 59.743 1.502 59.713 1.417 C 59.96 1.533 60.189 1.684 60.393 1.864 C 60.596 2.067 60.689 2.355 60.643 2.639 Z M 60.575 1.185 C 60.357 0.97 60.045 0.878 59.746 0.942 C 59.518 0.984 59.283 0.971 59.061 0.904 C 59.291 0.755 59.542 0.64 59.806 0.563 C 59.975 0.531 60.15 0.582 60.276 0.7 C 60.422 0.828 60.526 0.997 60.575 1.185 Z M 59.314 0.056 C 59.041 0.161 58.806 0.344 58.637 0.582 C 58.432 0.781 58.155 0.887 57.87 0.877 C 58.08 0.679 58.273 0.464 58.447 0.233 C 58.676 0.008 59.015 -0.061 59.314 0.056 Z M 56.737 1.278 C 56.936 1.47 57.157 1.638 57.395 1.78 C 57.616 1.974 57.737 2.26 57.721 2.554 C 57.531 2.34 57.31 2.156 57.066 2.009 C 56.845 1.832 56.723 1.56 56.737 1.278 Z M 56.829 2.557 C 57.021 2.757 57.237 2.932 57.471 3.081 C 57.686 3.279 57.8 3.565 57.781 3.858 C 57.594 3.639 57.377 3.448 57.136 3.291 C 56.923 3.109 56.809 2.837 56.829 2.557 Z M 56.889 3.844 C 57.076 4.053 57.289 4.236 57.522 4.39 C 57.733 4.592 57.842 4.878 57.819 5.17 C 57.635 4.948 57.421 4.754 57.183 4.594 C 56.968 4.408 56.859 4.127 56.889 3.844 Z M 56.927 5.134 C 57.112 5.342 57.322 5.525 57.552 5.68 C 57.762 5.883 57.869 6.171 57.843 6.462 C 57.661 6.241 57.448 6.045 57.212 5.882 C 57.003 5.693 56.896 5.415 56.927 5.134 Z M 56.951 6.43 C 57.134 6.637 57.343 6.82 57.571 6.975 C 57.774 7.183 57.874 7.471 57.843 7.761 C 57.663 7.537 57.453 7.339 57.218 7.174 C 57.016 6.983 56.917 6.706 56.951 6.43 Z M 56.965 7.722 C 57.146 7.931 57.354 8.114 57.582 8.268 C 57.785 8.477 57.884 8.766 57.854 9.056 C 57.675 8.831 57.465 8.632 57.231 8.464 C 57.029 8.274 56.93 7.998 56.965 7.722 Z M 56.968 9.018 C 57.149 9.225 57.355 9.408 57.582 9.563 C 57.785 9.772 57.885 10.061 57.854 10.352 C 57.676 10.126 57.467 9.926 57.234 9.757 C 57.034 9.567 56.935 9.293 56.968 9.018 Z M 56.965 10.313 C 57.144 10.526 57.35 10.715 57.577 10.875 C 57.782 11.083 57.882 11.373 57.849 11.663 C 57.673 11.436 57.465 11.234 57.231 11.066 C 57.027 10.873 56.928 10.593 56.965 10.313 Z M 56.957 11.609 C 57.135 11.822 57.34 12.012 57.566 12.173 C 57.769 12.382 57.869 12.671 57.838 12.962 C 57.662 12.734 57.455 12.533 57.223 12.364 C 57.018 12.17 56.919 11.889 56.957 11.609 Z M 56.943 12.904 C 57.12 13.119 57.323 13.31 57.55 13.472 C 57.754 13.68 57.854 13.969 57.821 14.26 C 57.646 14.032 57.44 13.831 57.21 13.66 C 57.003 13.467 56.903 13.185 56.943 12.904 Z M 56.924 14.2 C 57.1 14.415 57.303 14.606 57.528 14.77 C 57.734 14.978 57.834 15.269 57.8 15.561 C 57.626 15.332 57.421 15.129 57.191 14.958 C 56.984 14.764 56.884 14.481 56.924 14.2 Z M 56.9 15.495 C 57.075 15.711 57.278 15.903 57.503 16.065 C 57.708 16.276 57.807 16.567 57.775 16.859 C 57.601 16.63 57.396 16.426 57.166 16.253 C 56.959 16.06 56.859 15.776 56.9 15.495 Z M 56.875 16.791 C 57.049 17.008 57.251 17.201 57.476 17.363 C 57.675 17.577 57.769 17.867 57.734 18.157 C 57.561 17.927 57.356 17.724 57.125 17.552 C 56.924 17.354 56.831 17.07 56.875 16.791 Z M 56.845 18.089 C 57.019 18.305 57.22 18.497 57.443 18.662 C 57.645 18.873 57.739 19.165 57.699 19.455 C 57.525 19.224 57.319 19.02 57.087 18.847 C 56.888 18.649 56.797 18.366 56.845 18.089 Z M 56.816 19.384 C 56.988 19.602 57.189 19.796 57.414 19.96 C 57.613 20.172 57.706 20.464 57.666 20.753 C 57.495 20.523 57.292 20.318 57.063 20.145 C 56.862 19.947 56.77 19.663 56.816 19.384 Z M 56.775 20.682 C 56.95 20.898 57.151 21.091 57.373 21.258 C 57.575 21.469 57.671 21.761 57.631 22.052 C 57.46 21.82 57.256 21.615 57.028 21.441 C 56.825 21.244 56.731 20.961 56.775 20.682 Z M 56.739 21.978 C 56.912 22.195 57.112 22.389 57.335 22.553 C 57.533 22.768 57.625 23.06 57.585 23.35 C 57.414 23.119 57.212 22.913 56.984 22.739 C 56.784 22.54 56.693 22.256 56.739 21.978 Z M 56.699 23.273 C 56.872 23.491 57.072 23.685 57.294 23.852 C 57.491 24.065 57.583 24.356 57.544 24.645 C 57.373 24.414 57.169 24.208 56.941 24.034 C 56.742 23.835 56.652 23.551 56.699 23.273 Z M 56.655 24.572 C 56.83 24.788 57.032 24.982 57.256 25.147 C 57.46 25.355 57.56 25.645 57.528 25.935 C 57.353 25.708 57.148 25.505 56.919 25.332 C 56.712 25.137 56.614 24.853 56.655 24.572 Z M 56.628 25.875 C 56.802 26.09 57.004 26.281 57.229 26.442 C 57.428 26.652 57.522 26.941 57.487 27.228 C 57.312 27.002 57.108 26.802 56.878 26.633 C 56.676 26.437 56.583 26.154 56.628 25.875 Z M 56.598 27.176 C 56.772 27.39 56.974 27.579 57.199 27.738 C 57.364 27.91 57.482 28.123 57.541 28.354 C 57.293 28.247 57.06 28.106 56.851 27.934 C 56.646 27.74 56.551 27.455 56.598 27.176 Z M 56.685 28.602 C 56.908 28.799 57.211 28.878 57.501 28.812 C 57.722 28.771 57.95 28.785 58.164 28.853 C 57.936 29.006 57.687 29.123 57.424 29.2 C 57.259 29.229 57.089 29.18 56.965 29.066 C 56.828 28.942 56.731 28.781 56.685 28.602 Z M 57.903 29.71 C 58.173 29.607 58.407 29.425 58.574 29.189 C 58.77 28.994 59.038 28.888 59.314 28.897 C 59.115 29.096 58.933 29.312 58.77 29.541 C 58.542 29.767 58.2 29.834 57.903 29.71 Z M 60.445 28.488 C 60.249 28.28 60.029 28.097 59.79 27.942 C 59.565 27.732 59.444 27.433 59.458 27.124 C 59.649 27.351 59.871 27.55 60.118 27.713 C 60.34 27.907 60.461 28.193 60.445 28.488 Z M 60.35 27.124 C 60.157 26.916 59.94 26.733 59.703 26.579 C 59.486 26.364 59.372 26.066 59.39 25.761 C 59.574 25.993 59.792 26.196 60.037 26.363 C 60.25 26.557 60.364 26.836 60.35 27.124 Z M 60.282 25.761 C 60.094 25.545 59.88 25.352 59.645 25.188 C 59.432 24.966 59.325 24.661 59.352 24.353 C 59.532 24.59 59.745 24.798 59.985 24.972 C 60.198 25.177 60.307 25.467 60.282 25.761 Z M 60.241 24.381 C 60.059 24.161 59.852 23.965 59.624 23.794 C 59.415 23.569 59.315 23.263 59.352 22.957 C 59.527 23.193 59.734 23.402 59.969 23.579 C 60.177 23.79 60.278 24.086 60.241 24.381 Z M 60.246 23.009 C 60.074 22.784 59.872 22.584 59.645 22.414 C 59.438 22.187 59.339 21.881 59.374 21.574 C 59.549 21.817 59.757 22.032 59.993 22.215 C 60.197 22.426 60.29 22.719 60.246 23.009 Z M 60.273 21.629 C 60.1 21.404 59.898 21.203 59.673 21.032 C 59.466 20.804 59.366 20.498 59.401 20.192 C 59.573 20.431 59.778 20.645 60.01 20.827 C 60.219 21.038 60.317 21.335 60.273 21.629 Z M 60.301 20.252 C 60.127 20.026 59.925 19.823 59.7 19.649 C 59.492 19.422 59.393 19.115 59.428 18.809 C 59.6 19.049 59.805 19.264 60.037 19.447 C 60.245 19.659 60.343 19.957 60.301 20.252 Z M 60.328 18.872 C 60.154 18.645 59.951 18.442 59.724 18.269 C 59.521 18.038 59.427 17.731 59.466 17.426 C 59.638 17.668 59.844 17.884 60.078 18.067 C 60.279 18.283 60.372 18.579 60.328 18.872 Z M 60.35 17.494 C 60.175 17.267 59.972 17.062 59.746 16.886 C 59.541 16.656 59.442 16.35 59.474 16.043 C 59.647 16.286 59.853 16.502 60.086 16.687 C 60.293 16.901 60.39 17.199 60.35 17.494 Z M 60.589 15.536 C 60.606 15.264 60.606 14.99 60.589 14.718 C 60.626 14.414 60.812 14.148 61.083 14.009 C 60.985 14.283 60.942 14.574 60.956 14.865 C 60.939 15.133 60.805 15.379 60.589 15.536 Z M 61.535 14.775 C 61.605 14.507 61.653 14.233 61.679 13.957 C 61.765 13.667 61.986 13.436 62.271 13.338 C 62.136 13.592 62.049 13.87 62.016 14.156 C 61.959 14.426 61.782 14.654 61.535 14.775 Z M 62.606 14.175 C 62.714 13.922 62.8 13.659 62.861 13.39 C 62.982 13.11 63.232 12.906 63.53 12.844 C 63.362 13.081 63.239 13.348 63.169 13.63 C 63.075 13.889 62.867 14.09 62.606 14.175 Z M 63.753 13.72 C 63.892 13.483 64.013 13.236 64.115 12.981 C 64.285 12.722 64.574 12.567 64.884 12.569 C 64.666 12.764 64.495 13.005 64.381 13.275 C 64.249 13.51 64.018 13.674 63.753 13.72 Z M 64.93 13.461 C 65.11 13.248 65.262 13.06 65.438 12.82 C 65.684 12.605 66.028 12.547 66.33 12.67 C 66.044 12.756 65.792 12.928 65.607 13.163 C 65.433 13.353 65.187 13.461 64.93 13.461 Z M 66.058 13.523 C 66.292 13.387 66.51 13.286 66.776 13.147 C 67.086 13.069 67.415 13.162 67.638 13.392 C 67.344 13.367 67.048 13.419 66.781 13.545 C 66.547 13.632 66.287 13.624 66.058 13.523 Z M 67.021 14.052 C 67.292 14.028 67.537 14.012 67.836 13.968 C 68.154 13.993 68.436 14.185 68.576 14.472 C 68.304 14.357 68.007 14.313 67.714 14.344 C 67.452 14.35 67.2 14.244 67.021 14.052 Z M 67.79 14.906 C 68.062 14.969 68.29 15.032 68.581 15.094 C 68.869 15.225 69.067 15.499 69.1 15.814 C 68.882 15.616 68.619 15.476 68.334 15.405 C 68.093 15.318 67.897 15.139 67.79 14.906 Z M 68.233 15.964 C 68.464 16.117 68.665 16.251 68.923 16.398 C 69.047 16.487 69.137 16.616 69.176 16.763 C 69.197 16.838 69.212 16.915 69.22 16.992 C 69.224 17.064 69.224 17.136 69.22 17.208 C 69.05 16.973 68.837 16.774 68.592 16.622 C 68.386 16.462 68.256 16.224 68.233 15.964 Z M 68.325 17.151 C 68.5 17.365 68.702 17.555 68.926 17.715 C 69.128 17.925 69.223 18.215 69.184 18.503 C 69.012 18.276 68.808 18.075 68.578 17.906 C 68.375 17.712 68.28 17.429 68.325 17.151 Z M 68.296 18.446 C 68.471 18.66 68.674 18.85 68.899 19.011 C 69.103 19.219 69.203 19.509 69.171 19.799 C 68.992 19.576 68.782 19.379 68.548 19.215 C 68.343 19.016 68.248 18.729 68.296 18.446 Z M 68.268 19.742 C 68.442 19.956 68.644 20.146 68.869 20.306 C 69.07 20.516 69.166 20.806 69.127 21.094 C 68.954 20.867 68.749 20.665 68.518 20.497 C 68.317 20.302 68.223 20.019 68.268 19.742 Z M 68.233 21.037 C 68.407 21.251 68.609 21.441 68.834 21.602 C 69.039 21.809 69.139 22.099 69.106 22.39 C 68.934 22.164 68.732 21.963 68.505 21.792 C 68.296 21.601 68.194 21.318 68.233 21.037 Z M 68.211 22.332 C 68.385 22.547 68.587 22.737 68.812 22.897 C 69.018 23.104 69.119 23.395 69.084 23.685 C 68.909 23.459 68.704 23.258 68.475 23.088 C 68.268 22.895 68.169 22.613 68.211 22.332 Z M 68.181 23.631 C 68.354 23.844 68.554 24.032 68.777 24.192 C 68.978 24.402 69.073 24.692 69.035 24.981 C 68.862 24.76 68.66 24.563 68.434 24.397 C 68.226 24.201 68.131 23.913 68.181 23.631 Z M 68.151 24.926 C 68.327 25.139 68.53 25.328 68.755 25.488 C 68.959 25.698 69.058 25.988 69.027 26.279 C 68.852 26.052 68.647 25.85 68.418 25.679 C 68.212 25.487 68.112 25.206 68.151 24.926 Z M 68.124 26.222 C 68.299 26.435 68.501 26.625 68.725 26.786 C 68.833 26.88 68.909 27.006 68.943 27.146 C 68.974 27.28 68.989 27.418 68.989 27.555 C 68.898 27.45 68.802 27.35 68.701 27.255 C 68.597 27.157 68.483 27.067 68.374 26.982 C 68.171 26.786 68.077 26.501 68.124 26.222 Z M 68.097 27.528 C 68.272 27.751 68.497 27.929 68.755 28.046 C 68.95 28.171 69.111 28.344 69.223 28.548 C 68.955 28.51 68.696 28.428 68.456 28.305 C 68.2 28.135 68.061 27.834 68.097 27.528 Z M 68.453 29.001 C 68.721 29.139 69.039 29.139 69.307 29.001 C 69.528 28.914 69.77 28.894 70.003 28.941 C 69.788 29.113 69.557 29.265 69.315 29.396 C 69.049 29.53 68.643 29.342 68.453 29.001 Z M 69.845 29.819 C 70.096 29.681 70.306 29.477 70.451 29.23 C 70.627 29.027 70.873 28.899 71.139 28.87 C 70.968 29.072 70.832 29.331 70.663 29.565 C 70.463 29.803 70.144 29.902 69.845 29.819 Z" fill="rgb(255,255,255)"></path>
    </g></g>
</svg>