<!-- skirt -->
<svg xmlns="http://www.w3.org/2000/svg" width="31" height="35">
  <path d="M 15.5 7.408 C 17.502 7.408 18.923 6.008 19.052 4.083 C 18.923 4.083 18.729 4.025 18.6 4.083 C 18.083 4.142 17.567 4.375 17.05 4.492 C 15.371 4.9 13.692 4.083 12.012 3.967 C 12.142 5.892 13.692 7.408 15.5 7.408 Z" fill="rgb(71, 85, 110)"></path>
  <path d="M 27.513 11.842 C 25.51 9.392 23.444 6.883 20.796 4.9 C 20.667 4.783 20.473 4.667 20.344 4.608 C 20.021 6.942 18.083 8.633 15.5 8.633 C 12.981 8.633 10.915 6.592 10.656 4.025 C 8.654 4.492 7.363 6.358 6.265 8.05 C 4.779 10.15 3.1 12.192 1.292 14.117 C 0.775 14.7 0.129 15.342 0.388 16.042 C 0.646 16.975 2.067 17.208 3.165 17.15 C 3.552 17.15 3.94 17.15 4.263 16.917 C 4.521 16.742 4.65 16.508 4.779 16.217 L 6.329 13.242 C 6.588 12.717 6.91 12.133 7.556 11.958 C 8.202 11.783 8.913 12.133 9.235 12.658 C 9.623 13.183 9.688 13.767 9.752 14.35 C 10.204 19.425 8.913 24.617 6.071 29.05 C 5.877 29.342 5.683 29.692 5.748 30.042 C 5.877 30.742 6.91 30.917 7.685 30.917 C 9.042 30.917 10.463 30.917 11.819 30.975 C 12.335 30.975 12.788 30.975 13.304 30.917 C 13.885 30.858 14.402 30.683 14.919 30.567 C 17.954 29.983 21.183 30.858 24.154 30.1 C 23.056 29.633 22.217 28.817 21.635 27.883 C 20.731 26.192 20.86 24.208 21.119 22.4 C 21.313 19.717 21.635 16.917 21.958 14.117 C 22.023 13.592 22.217 12.95 22.733 12.833 C 23.056 12.775 23.315 12.892 23.638 13.067 C 25.381 14 26.738 15.575 27.254 17.383 C 28.288 16.683 29.45 16.1 30.677 15.75 C 29.644 14.408 28.61 13.125 27.513 11.842 Z" fill="rgb(71, 85, 110)"></path>
</svg>