<!-- custom -->
<svg xmlns="http://www.w3.org/2000/svg" width="26" height="28">
  <path d="M 22.051 7.358 L 18.743 6.318 L 18.743 5.081 C 18.743 4.895 18.612 4.732 18.416 4.665 L 16.054 3.85 L 15.597 2.275 C 15.539 2.073 15.33 1.932 15.088 1.932 L 14.566 1.932 L 14.566 0.583 C 14.566 0.335 14.331 0.133 14.044 0.133 L 11.956 0.133 C 11.669 0.133 11.434 0.335 11.434 0.583 L 11.434 1.932 L 10.912 1.932 C 10.67 1.932 10.461 2.073 10.403 2.275 L 9.946 3.85 L 7.584 4.665 C 7.388 4.732 7.257 4.901 7.257 5.081 L 7.257 6.318 L 3.949 7.353 C 3.694 7.431 3.551 7.667 3.622 7.892 L 6.167 16.237 C 5.645 16.928 4.125 19.487 4.125 25.773 C 4.125 26.02 4.36 26.223 4.647 26.223 L 10.912 26.223 L 10.912 27.572 C 10.912 27.82 11.147 28.022 11.434 28.022 L 14.566 28.022 C 14.853 28.022 15.088 27.82 15.088 27.572 L 15.088 26.223 L 21.353 26.223 C 21.64 26.223 21.875 26.02 21.875 25.773 C 21.875 19.487 20.355 16.928 19.833 16.237 L 22.378 7.892 C 22.449 7.667 22.306 7.437 22.051 7.358 Z M 17.699 5.385 L 17.699 5.531 C 17.411 5.531 17.177 5.733 17.177 5.981 C 17.177 6.228 17.411 6.43 17.699 6.43 L 17.699 7.33 C 17.411 7.33 17.177 7.532 17.177 7.78 C 17.177 8.027 17.411 8.23 17.699 8.23 L 17.699 9.129 C 17.411 9.129 17.177 9.332 17.177 9.579 C 17.177 9.827 17.411 10.029 17.699 10.029 L 17.699 10.929 C 17.411 10.929 17.177 11.131 17.177 11.379 C 17.177 11.626 17.411 11.828 17.699 11.828 L 17.699 12.728 C 17.411 12.728 17.177 12.93 17.177 13.178 C 17.177 13.425 17.411 13.628 17.699 13.628 L 17.699 14.527 C 17.411 14.527 17.177 14.73 17.177 14.977 C 17.177 15.225 17.411 15.427 17.699 15.427 L 17.699 16.327 C 17.411 16.327 17.177 16.529 17.177 16.776 C 17.177 17.024 17.411 17.226 17.699 17.226 L 17.699 18.126 C 17.411 18.126 17.177 18.328 17.177 18.576 C 17.177 18.823 17.411 19.026 17.699 19.026 L 17.699 19.925 L 16.654 19.925 L 16.654 5.981 C 16.654 5.941 16.648 5.907 16.641 5.874 L 16.367 4.929 Z M 12.478 1.032 L 13.522 1.032 L 13.522 1.932 L 12.478 1.932 Z M 8.301 21.725 L 9.346 21.725 L 9.346 22.624 L 8.301 22.624 Z M 8.301 5.385 L 9.633 4.923 L 9.359 5.868 C 9.346 5.902 9.346 5.941 9.346 5.975 L 9.346 20.819 L 8.301 20.819 L 8.301 19.02 C 8.589 19.02 8.823 18.818 8.823 18.57 C 8.823 18.323 8.589 18.12 8.301 18.12 L 8.301 17.221 C 8.589 17.221 8.823 17.018 8.823 16.771 C 8.823 16.523 8.589 16.321 8.301 16.321 L 8.301 15.421 C 8.589 15.421 8.823 15.219 8.823 14.972 C 8.823 14.724 8.589 14.522 8.301 14.522 L 8.301 13.622 C 8.589 13.622 8.823 13.42 8.823 13.172 C 8.823 12.925 8.589 12.722 8.301 12.722 L 8.301 11.823 C 8.589 11.823 8.823 11.62 8.823 11.373 C 8.823 11.125 8.589 10.923 8.301 10.923 L 8.301 10.023 C 8.589 10.023 8.823 9.821 8.823 9.574 C 8.823 9.326 8.589 9.124 8.301 9.124 L 8.301 8.224 C 8.589 8.224 8.823 8.022 8.823 7.774 C 8.823 7.527 8.589 7.324 8.301 7.324 L 8.301 6.425 C 8.589 6.425 8.823 6.222 8.823 5.975 C 8.823 5.728 8.589 5.525 8.301 5.525 Z M 14.044 27.122 L 11.956 27.122 L 11.956 26.223 L 14.044 26.223 Z M 20.831 25.323 L 5.169 25.323 C 5.247 18.666 7.114 16.636 7.127 16.619 C 7.238 16.507 7.277 16.355 7.238 16.214 L 4.751 8.061 L 7.257 7.274 L 7.257 23.074 C 7.257 23.321 7.492 23.524 7.779 23.524 L 9.868 23.524 C 10.155 23.524 10.39 23.321 10.39 23.074 L 10.39 6.037 L 11.316 2.832 L 14.677 2.832 L 15.604 6.037 L 15.604 20.375 C 15.604 20.622 15.839 20.825 16.126 20.825 L 18.214 20.825 C 18.501 20.825 18.736 20.622 18.736 20.375 L 18.736 16.332 C 18.736 16.439 18.782 16.54 18.86 16.619 C 18.886 16.636 20.746 18.666 20.831 25.323 Z M 18.762 16.214 C 18.749 16.248 18.749 16.282 18.743 16.315 L 18.743 7.279 L 21.249 8.067 Z" fill="rgb(71, 85, 110)"></path>
</svg>